<?xml version="1.0" standalone="no"?>
<!DOCTYPE svg PUBLIC "-//W3C//DTD SVG 20010904//EN"
 "http://www.w3.org/TR/2001/REC-SVG-20010904/DTD/svg10.dtd">
<svg version="1.0" xmlns="http://www.w3.org/2000/svg"
 width="480.000000pt" height="480.000000pt" viewBox="0 0 480.000000 480.000000"
 preserveAspectRatio="xMidYMid meet">
<metadata>
Created by potrace 1.11, written by Peter Selinger 2001-2013
</metadata>
<g transform="translate(0.000000,480.000000) scale(0.100000,-0.100000)"
fill="#000000" stroke="none">
<path d="M1386 4178 c-8 -13 -74 -122 -148 -243 -74 -121 -209 -341 -299 -488
-90 -147 -171 -280 -180 -295 -9 -15 -116 -190 -237 -390 l-222 -362 56 -93
c31 -50 67 -108 79 -127 12 -19 52 -84 89 -145 37 -60 248 -407 470 -770 l403
-660 1003 0 1004 0 288 470 c158 259 297 486 308 505 27 46 22 38 278 457
l222 362 -56 93 c-31 51 -65 107 -75 123 -11 17 -233 379 -493 805 l-473 775
-1001 3 -1001 2 -15 -22z m1559 -318 c-151 -52 -526 -183 -665 -231 -63 -22
-155 -54 -205 -71 l-89 -30 -178 179 c-97 98 -177 181 -178 186 0 4 321 7 713
6 l712 -1 -110 -38z m442 -215 c61 -99 149 -244 197 -323 l88 -143 -65 -67
c-35 -37 -79 -83 -98 -103 -74 -78 -286 -304 -318 -338 -18 -20 -67 -71 -109
-114 l-75 -78 -95 98 c-51 54 -175 181 -275 281 l-180 184 99 99 c54 54 234
236 399 403 218 220 303 300 311 292 6 -6 61 -92 121 -191z m-1894 -285 c-9
-8 -118 -48 -246 -89 -86 -28 -88 -29 -74 -8 25 39 241 395 282 464 l40 68 3
-214 c1 -118 -1 -218 -5 -221z m1231 91 c-181 -182 -332 -331 -335 -331 -5 0
-116 111 -288 287 -27 28 -31 37 -20 44 8 5 79 31 159 58 168 57 669 230 750
258 30 11 57 19 59 17 2 -2 -145 -152 -325 -333z m-854 53 c13 -11 13 -13 0
-18 -38 -12 -199 -69 -232 -82 l-38 -14 0 193 0 194 128 -131 c70 -71 134
-136 142 -142z m257 -265 c92 -94 173 -177 180 -184 9 -9 -53 -76 -271 -294
l-281 -281 -78 78 -77 77 0 327 0 326 33 11 c17 6 95 33 172 60 77 28 143 50
147 50 3 1 82 -76 175 -170z m-627 -246 l0 -258 -189 190 c-103 105 -185 193
-181 197 6 8 336 125 358 127 9 1 12 -56 12 -256z m2205 65 c-4 -11 -100 -395
-110 -438 -2 -8 -22 -91 -45 -185 -23 -93 -43 -177 -45 -185 -2 -8 -11 -44
-20 -80 -9 -36 -19 -73 -21 -83 -12 -63 -8 -66 -199 130 -107 110 -181 193
-177 199 4 7 72 81 152 165 80 84 179 190 221 234 41 44 109 115 150 158 41
43 76 83 77 88 2 5 8 9 13 9 4 0 6 -6 4 -12z m-2430 -235 l225 -228 0 -186 0
-185 -225 -227 c-123 -125 -228 -227 -232 -227 -4 0 -82 122 -173 271 -91 150
-178 291 -193 315 l-29 44 104 171 c56 93 145 240 196 325 52 85 96 154 98
154 2 0 106 -102 229 -227z m1299 -40 c101 -104 225 -230 275 -282 l90 -94
-42 -46 c-23 -25 -69 -75 -103 -111 -34 -36 -83 -87 -109 -115 -26 -27 -101
-107 -167 -178 l-121 -127 -224 227 c-123 126 -252 256 -286 291 l-62 62 280
280 c154 154 281 280 282 280 1 0 85 -84 187 -187z m1410 -110 l166 -273 -105
-171 c-58 -94 -105 -173 -105 -176 0 -2 -6 -10 -12 -18 -7 -7 -52 -78 -101
-158 l-87 -145 -98 99 c-53 55 -98 104 -100 108 -2 5 13 73 33 152 20 79 38
151 40 159 2 8 43 173 92 367 65 259 91 348 99 340 6 -7 86 -135 178 -284z
m-2342 -305 l-42 -43 0 85 0 85 42 -43 43 -42 -43 -42z m661 -640 l-27 -28
-338 0 -338 0 0 241 0 241 78 79 77 79 288 -292 287 -292 -27 -28z m863 449
c82 -84 173 -178 202 -209 l53 -56 -27 -106 -26 -106 -422 0 -422 0 -28 29
-28 30 53 57 c66 70 63 67 234 248 77 82 164 175 194 207 30 33 57 59 61 59 3
0 73 -69 156 -153z m-1666 -287 l0 -190 -185 0 c-102 0 -185 2 -185 5 0 5 362
374 368 375 1 0 2 -85 2 -190z m2059 -188 c-39 -2 -73 -1 -76 2 -4 3 10 67 23
105 3 10 23 -3 65 -45 l60 -59 -72 -3z m-2059 -394 c0 -160 -2 -289 -4 -287
-3 4 -76 123 -274 447 l-81 132 179 0 180 0 0 -292z m620 225 c-36 -37 -76
-79 -90 -93 -141 -151 -273 -291 -344 -365 l-85 -90 -1 308 0 307 292 0 292 0
-64 -67z m708 -277 c188 -190 342 -347 342 -350 0 -3 -338 -6 -751 -6 -418 0
-749 4 -747 9 2 4 64 73 138 151 74 79 146 155 160 170 14 15 90 95 170 179
80 84 152 162 160 172 13 16 29 19 101 19 l85 0 342 -344z m512 338 c0 -16
-134 -550 -140 -557 -5 -5 -421 403 -569 559 -2 2 156 4 352 4 197 0 357 -3
357 -6z m241 -122 c-43 -70 -119 -195 -170 -276 -50 -81 -91 -153 -91 -159 0
-6 -2 -8 -5 -5 -3 3 13 77 35 164 22 88 43 168 45 179 2 11 16 66 31 123 l27
102 103 0 104 0 -79 -128z"/>
</g>
</svg>
